Coordinates
version=1
nRows=65
nColumns=12
inDegrees=yes

Units are S.I. units (second, meters, Newtons, ...)
Angles are in degrees

endheader
time	SC_y	SC_z	SC_x	AC_y	AC_z	AC_x	GH_y	GH_z	GH_yy	EL_x	PS_y
       0.0               -28.6          20.31          4.172          67.08         -14.25         -14.64         -147.6          65.67         -27.25          39.42          120.0
  0.001367              -28.61          20.31          4.179          67.07         -14.25         -14.64         -147.5          65.67         -27.24          39.42          120.0
  0.002735              -28.61          20.31          4.186          67.07         -14.25         -14.64         -147.5          65.67         -27.23          39.43          120.0
  0.004102              -28.62          20.31          4.194          67.06         -14.24         -14.63         -147.5          65.68         -27.22          39.43          120.0
   0.00547              -28.62          20.31          4.202          67.06         -14.24         -14.63         -147.4          65.68         -27.21          39.43          120.0
  0.006837              -28.62          20.31          4.211          67.06         -14.23         -14.63         -147.4          65.68          -27.2          39.43          120.0
  0.008205              -28.63          20.31          4.221          67.05         -14.23         -14.62         -147.3          65.68         -27.19          39.44          120.0
  0.009572              -28.63           20.3          4.231          67.05         -14.22         -14.62         -147.3          65.68         -27.17          39.44          120.0
   0.01094              -28.64           20.3          4.242          67.04         -14.22         -14.61         -147.3          65.69         -27.16          39.44          120.0
   0.01231              -28.64           20.3          4.254          67.04         -14.21         -14.61         -147.2          65.69         -27.15          39.45          120.0
   0.01367              -28.65           20.3          4.267          67.03         -14.21         -14.61         -147.1          65.69         -27.13          39.45          119.9
   0.01504              -28.66           20.3          4.281          67.02          -14.2          -14.6         -147.1          65.69         -27.11          39.46          119.9
   0.01641              -28.67           20.3          4.295          67.02          -14.2          -14.6         -147.0           65.7          -27.1          39.46          119.9
   0.01778              -28.67           20.3          4.311          67.01         -14.19         -14.59         -147.0           65.7         -27.08          39.46          119.9
   0.01914              -28.68           20.3          4.328           67.0         -14.18         -14.58         -146.9           65.7         -27.06          39.47          119.9
   0.02051              -28.69           20.3          4.347          66.99         -14.17         -14.58         -146.8          65.71         -27.03          39.48          119.9
   0.02188               -28.7           20.3          4.367          66.98         -14.16         -14.57         -146.7          65.71         -27.01          39.48          119.8
   0.02325              -28.71           20.3           4.39          66.97         -14.15         -14.56         -146.6          65.71         -26.98          39.49          119.8
   0.02461              -28.72          20.29          4.414          66.96         -14.14         -14.55         -146.5          65.72         -26.95           39.5          119.8
   0.02598              -28.74          20.29           4.44          66.95         -14.13         -14.54         -146.4          65.72         -26.92          39.51          119.8
   0.02735              -28.75          20.29          4.469          66.94         -14.11         -14.53         -146.3          65.73         -26.89          39.51          119.7
   0.02872              -28.77          20.29          4.501          66.92          -14.1         -14.52         -146.2          65.74         -26.85          39.52          119.7
   0.03008              -28.78          20.29          4.536          66.91         -14.08         -14.51         -146.0          65.74         -26.81          39.54          119.7
   0.03145               -28.8          20.28          4.576          66.89         -14.06         -14.49         -145.8          65.75         -26.76          39.55          119.6
   0.03282              -28.82          20.28          4.619          66.87         -14.04         -14.48         -145.7          65.76         -26.71          39.56          119.6
   0.03419              -28.85          20.28          4.668          66.85         -14.02         -14.46         -145.4          65.77         -26.65          39.58          119.5
   0.03555              -28.88          20.28          4.722          66.82          -14.0         -14.44         -145.2          65.78         -26.58          39.59          119.5
   0.03692              -28.91          20.27          4.783          66.79         -13.97         -14.42         -145.0          65.79         -26.51          39.61          119.4
   0.03829              -28.94          20.27          4.852          66.76         -13.94         -14.39         -144.7           65.8         -26.42          39.63          119.3
   0.03966              -28.98          20.26          4.931          66.73          -13.9         -14.36         -144.3          65.82         -26.33          39.66          119.3
   0.04102              -29.02          20.26           5.02          66.68         -13.86         -14.33         -144.0          65.84         -26.22          39.69          119.2
   0.04239              -29.07          20.25          5.123          66.64         -13.81         -14.29         -143.5          65.86          -26.1          39.72          119.1
   0.04376              -29.13          20.24          5.241          66.58         -13.75         -14.25         -143.0          65.88         -25.95          39.76          119.0
   0.04513               -29.2          20.24          5.379          66.52         -13.69          -14.2         -142.4           65.9         -25.79           39.8          118.8
   0.04649              -29.28          20.23           5.54          66.44         -13.61         -14.14         -141.7          65.94         -25.59          39.85          118.7
   0.04786              -29.37          20.21          5.731          66.36         -13.53         -14.07         -140.9          65.97         -25.36          39.91          118.5
   0.04923              -29.48           20.2          5.956          66.25         -13.42         -13.99         -140.0          66.02         -25.09          39.98          118.2
    0.0506              -29.62          20.18          6.227          66.13         -13.29         -13.89         -138.8          66.07         -24.76          40.07          118.0
   0.05196              -29.78          20.16          6.555          65.98         -13.14         -13.77         -137.4          66.13         -24.37          40.17          117.6
   0.05333              -29.98          20.14          6.955          65.79         -12.95         -13.63         -135.7          66.21         -23.89          40.29          117.2
    0.0547              -30.22          20.11          7.449          65.57         -12.72         -13.45         -133.6           66.3         -23.29          40.45          116.7
   0.05607              -30.52          20.07          8.065          65.28         -12.44         -13.23         -131.0          66.42         -22.55          40.64          116.1
   0.05743              -30.91          20.03          8.841          64.92         -12.08         -12.94         -127.7          66.57         -21.61          40.89          115.3
    0.0588              -31.39          19.97          9.827          64.47         -11.62         -12.59         -123.6          66.76         -20.42           41.2          114.3
   0.06017              -32.01          19.89          11.09          63.89         -11.03         -12.13         -118.2          67.01         -18.89          41.59          113.0
   0.06154              -32.81          19.79          12.71          63.14         -10.27         -11.54         -111.3          67.32         -16.94           42.1          111.4
    0.0629              -33.83          19.67          14.78          62.19         -9.306         -10.79         -102.5          67.72         -14.44          42.75          109.3
   0.06427              -35.12          19.51          17.38          60.99         -8.093          -9.84          -91.5          68.22          -11.3          43.57          106.7
   0.06564              -36.68          19.32          20.55          59.53         -6.614         -8.687         -78.04          68.83         -7.472          44.56          103.5
   0.06701              -38.49           19.1          24.23          57.84           -4.9         -7.352         -62.45          69.54         -3.035          45.72          99.76
   0.06837              -40.45          18.86          28.21           56.0         -3.044         -5.905         -45.56          70.31           1.77          46.97          95.74
   0.06974              -42.41          18.62          32.19          54.17         -1.188         -4.459         -28.67          71.08          6.574          48.22          91.72
   0.07111              -44.23           18.4          35.86          52.48         0.5262         -3.123         -13.08          71.79          11.01          49.37           88.0
   0.07248              -45.79          18.21          39.03          51.02          2.005         -1.971         0.3804           72.4          14.84          50.37           84.8
   0.07384              -47.07          18.05          41.63          49.82          3.218         -1.025          11.42           72.9          17.98          51.19          82.17
   0.07521              -48.09          17.93           43.7          48.87          4.183         -0.273           20.2           73.3          20.48          51.83          80.08
   0.07658              -48.89          17.83          45.32          48.12          4.939         0.3158          27.08          73.61          22.43          52.34          78.44
   0.07795              -49.51          17.75          46.59          47.54          5.528         0.7746          32.43          73.86          23.96          52.74          77.16
   0.07931               -50.0          17.69          47.57          47.08          5.988          1.133          36.62          74.05          25.15          53.05          76.17
   0.08068              -50.38          17.65          48.35          46.73          6.349          1.415          39.91           74.2          26.09          53.29          75.38
   0.08205              -50.68          17.61          48.96          46.44          6.637          1.639          42.53          74.32          26.83          53.49          74.76
   0.08342              -50.93          17.58          49.46          46.22          6.867          1.818          44.62          74.41          27.43          53.64          74.26
   0.08478              -51.13          17.56          49.86          46.03          7.054          1.964          46.32          74.49          27.91          53.77          73.85
   0.08615              -51.29          17.54          50.19          45.88          7.206          2.083          47.71          74.55           28.3          53.87          73.52
   0.08752              -51.42          17.52          50.46          45.76          7.333          2.181          48.86          74.61          28.63          53.96          73.25
